<svg width="414" height="120" viewBox="0 0 414 120" fill="none" xmlns="http://www.w3.org/2000/svg">
<path fill-rule="evenodd" clip-rule="evenodd" d="M0.492676 1.58198C3.64148 1.58198 41.7074 1.58198 41.7074 1.58198L88.3605 90.5951L136.383 0.673828H177.386L112.004 119.109H64.9356L0.492676 1.58198Z" fill="#56752D"/>
<path fill-rule="evenodd" clip-rule="evenodd" d="M73.0571 1.58198C76.205 1.58198 114.272 1.58198 114.272 1.58198L120.549 13.5589L100.575 51.766L73.0571 1.58198ZM149.627 69.0383L160.925 90.5951L208.947 0.673828H249.951L184.569 119.109H137.5L129.496 104.512L149.627 69.0383Z" fill="#56752D"/>
<path fill-rule="evenodd" clip-rule="evenodd" d="M261.185 0.673828H302.189L283.646 34.2613L252.491 16.8306C255.379 11.5007 258.278 6.11895 261.185 0.673828ZM278.435 43.702L236.806 119.108H196.38C213.284 87.7141 230.358 57.4367 247.767 25.5167L278.434 43.701L278.435 43.702Z" fill="#D0E044"/>
<path fill-rule="evenodd" clip-rule="evenodd" d="M268.706 78.9705V119.326H380.965C380.965 119.326 410.558 116.635 413.248 94.6242V25.8662C413.248 25.8662 410.867 3.36472 382.741 0.674805H312.303L297.383 27.5778H366.599C366.599 27.5778 382.986 25.6214 382.007 40.7855C381.029 55.9487 382.007 83.5862 382.007 83.5862C382.007 83.5862 382.741 91.9017 370.757 91.9017H302.275V37.1164H293.226L268.707 78.9715L268.706 78.9705Z" fill="#56752D"/>
<path fill-rule="evenodd" clip-rule="evenodd" d="M0.492676 1.58198C3.64148 1.58198 41.7074 1.58198 41.7074 1.58198L88.3605 90.5951L136.383 0.673828H177.386L112.004 119.109H64.9356L0.492676 1.58198Z" fill="#56752D"/>
<path fill-rule="evenodd" clip-rule="evenodd" d="M73.0571 1.58198C76.205 1.58198 114.272 1.58198 114.272 1.58198L120.549 13.5589L100.575 51.766L73.0571 1.58198ZM149.627 69.0383L160.925 90.5951L208.947 0.673828H249.951L184.569 119.109H137.5L129.496 104.512L149.627 69.0383Z" fill="#56752D"/>
<path fill-rule="evenodd" clip-rule="evenodd" d="M261.185 0.673828H302.189L283.646 34.2613L252.491 16.8306C255.379 11.5007 258.278 6.11895 261.185 0.673828ZM278.435 43.702L236.806 119.108H196.38C213.284 87.7141 230.358 57.4367 247.767 25.5167L278.434 43.701L278.435 43.702Z" fill="#D0E044"/>
<path fill-rule="evenodd" clip-rule="evenodd" d="M268.706 78.9705V119.326H380.965C380.965 119.326 410.558 116.635 413.248 94.6242V25.8662C413.248 25.8662 410.867 3.36472 382.741 0.674805H312.303L297.383 27.5778H366.599C366.599 27.5778 382.986 25.6214 382.007 40.7855C381.029 55.9487 382.007 83.5862 382.007 83.5862C382.007 83.5862 382.741 91.9017 370.757 91.9017H302.275V37.1164H293.226L268.707 78.9715L268.706 78.9705Z" fill="#56752D"/>
</svg>
